<?xml version="1.0" encoding="iso-8859-1"?>
<!-- Generator: Adobe Illustrator 19.0.0, SVG Export Plug-In . SVG Version: 6.00 Build 0)  -->
<svg version="1.1" id="Capa_1" xmlns="http://www.w3.org/2000/svg" xmlns:xlink="http://www.w3.org/1999/xlink" x="0px" y="0px"
	 viewBox="0 0 512 512" style="enable-background:new 0 0 512 512;" xml:space="preserve">
<rect x="8.533" y="102.4" style="fill:#0071BC;" width="494.933" height="341.333"/>
<path style="fill:#CCCCCC;" d="M418.133,68.267h-128L256,102.4l-34.133-34.133H51.2v298.667h170.667L256,401.067l34.133-34.133
	H435.2c14.14,0,25.6-11.46,25.6-25.6l0,0c0-14.14-11.46-25.6-25.6-25.6h-17.067V68.267z"/>
<g>
	<path style="fill:#29ABE2;" d="M460.8,401.067H256l34.133-34.133H435.2c14.14,0,25.6-11.46,25.6-25.6l0,0V401.067z"/>
	<polygon style="fill:#29ABE2;" points="51.2,366.933 51.2,401.067 256,401.067 221.867,366.933 	"/>
</g>
<polygon style="fill:#E6E6E6;" points="256,102.4 221.867,68.267 51.2,68.267 51.2,366.933 221.867,366.933 256,401.067 "/>
<path style="fill:#29ABE2;" d="M460.8,341.333L460.8,341.333c0-14.14-11.46-25.6-25.6-25.6h-17.067v-281.6H435.2
	c14.14,0,25.6,11.46,25.6,25.6V341.333z"/>
<rect x="93.867" y="110.933" style="fill:#DA4836;" width="119.467" height="119.467"/>
<polygon style="fill:#FFFFFF;" points="128,196.267 128,145.067 179.2,170.667 "/>
<rect x="85.333" y="290.133" width="136.533" height="17.067"/>
<rect x="102.4" y="256" width="17.067" height="17.067"/>
<rect x="136.533" y="256" width="85.333" height="17.067"/>
<rect x="85.333" y="324.267" width="102.4" height="17.067"/>
<rect x="307.2" y="256" width="17.067" height="17.067"/>
<rect x="290.133" y="324.267" width="93.867" height="17.067"/>
<rect x="307.2" y="119.467" width="17.067" height="17.067"/>
<rect x="290.133" y="187.733" width="93.867" height="17.067"/>
<path d="M93.867,238.933h119.467c4.71,0,8.533-3.823,8.533-8.533V110.933c0-4.71-3.823-8.533-8.533-8.533H93.867
	c-4.71,0-8.533,3.823-8.533,8.533V230.4C85.333,235.11,89.156,238.933,93.867,238.933z M102.4,119.467h102.4v102.4H102.4V119.467z"
	/>
<path d="M183.014,163.029l-51.2-25.6c-4.215-2.108-9.344-0.401-11.452,3.823c-0.589,1.178-0.896,2.492-0.896,3.814v51.2
	c0,4.71,3.814,8.533,8.533,8.533c1.323,0,2.637-0.307,3.814-0.896l51.2-25.6c4.215-2.099,5.931-7.228,3.831-11.443
	C186.018,165.197,184.67,163.857,183.014,163.029z M136.533,182.46v-23.586l23.586,11.793L136.533,182.46z"/>
<path d="M503.467,93.867h-34.133V59.733c0-18.85-15.283-34.133-34.133-34.133h-17.067c-4.71,0-8.533,3.823-8.533,8.533v25.6H290.133
	c-2.261,0-4.437,0.896-6.033,2.5l-28.1,28.1l-28.1-28.1c-1.596-1.604-3.772-2.5-6.033-2.5H51.2c-4.71,0-8.533,3.823-8.533,8.533
	v25.6H8.533C3.823,93.867,0,97.69,0,102.4v341.333c0,4.71,3.823,8.533,8.533,8.533h494.933c4.71,0,8.533-3.823,8.533-8.533V102.4
	C512,97.69,508.177,93.867,503.467,93.867z M426.667,42.667h8.533c9.429,0,17.067,7.637,17.067,17.067v252.049
	c-5.18-3.012-11.076-4.591-17.067-4.582h-8.533V42.667z M264.533,105.933L293.666,76.8H409.6v42.667h-68.267v17.067H409.6V153.6
	H290.133v17.067H409.6V256h-68.267v17.067H409.6v17.067H290.133V307.2H409.6v8.533c0,4.71,3.823,8.533,8.533,8.533H435.2
	c9.429,0,17.067,7.637,17.067,17.067c0,9.429-7.637,17.067-17.067,17.067H290.133c-2.261,0-4.437,0.896-6.033,2.5l-19.567,19.567
	V105.933z M452.267,370.884v21.649H276.599l17.067-17.067H435.2c2.057-0.017,4.105-0.23,6.118-0.623
	c0.495-0.085,0.973-0.179,1.459-0.29c1.92-0.41,3.806-0.981,5.632-1.707l0.316-0.162
	C449.937,372.156,451.123,371.55,452.267,370.884z M59.733,76.8h158.601l29.133,29.133v274.534L227.9,360.9
	c-1.596-1.604-3.772-2.5-6.033-2.5H59.733V76.8z M59.733,375.467h158.601l17.067,17.067H59.733V375.467z M494.933,435.2H17.067
	V110.933h25.6v290.133c0,4.71,3.823,8.533,8.533,8.533h409.6c4.71,0,8.533-3.823,8.533-8.533V110.933h25.6V435.2z"/>
<path d="M85.333,25.6v17.067h141.534l23.1,23.1L262.033,53.7l-25.6-25.6c-1.596-1.604-3.772-2.5-6.033-2.5H85.333z"/>
<rect x="51.2" y="25.6" width="17.067" height="17.067"/>
<rect x="179.2" y="469.333" width="238.933" height="17.067"/>
<rect x="435.2" y="469.333" width="17.067" height="17.067"/>
<g>
</g>
<g>
</g>
<g>
</g>
<g>
</g>
<g>
</g>
<g>
</g>
<g>
</g>
<g>
</g>
<g>
</g>
<g>
</g>
<g>
</g>
<g>
</g>
<g>
</g>
<g>
</g>
<g>
</g>
</svg>
