<svg xmlns="http://www.w3.org/2000/svg" viewBox="0 0 202 48"><defs><style>.cls-1{fill:#404374;}.cls-2{fill:#963f37;}</style></defs><title>logo_desktop</title><g id="Слой_2" data-name="Слой 2"><g id="Слой_1-2" data-name="Слой 1"><path class="cls-1" d="M30,15a2.09,2.09,0,0,1-2.09,2.09,2.06,2.06,0,0,1-1.16-.36h0l-.18-.14a2,2,0,0,0-1.15-.35,2.09,2.09,0,0,0-2.09,2.09v5H19.5a1.5,1.5,0,0,1-1.5-1.5,1.49,1.49,0,0,1,.12-.59,3.34,3.34,0,1,0-6.19,0,1.49,1.49,0,0,1,.12.59,1.5,1.5,0,0,1-1.5,1.5H6.68v-5a2.08,2.08,0,0,0-3.23-1.74l-.21.16a2.09,2.09,0,1,1,0-3.49l.21.16a2.09,2.09,0,0,0,3.23-1.74v-5h3.86A1.5,1.5,0,0,1,12,8.18a1.49,1.49,0,0,1-.12.59,3.34,3.34,0,1,0,6.19,0A1.49,1.49,0,0,1,18,8.18a1.5,1.5,0,0,1,1.5-1.5h3.86v5a2.08,2.08,0,0,0,3.23,1.74l.21-.15a2.06,2.06,0,0,1,1.15-.35A2.09,2.09,0,0,1,30,15Z"/><path class="cls-1" d="M15,48a2.09,2.09,0,0,1-2.09-2.09,2.06,2.06,0,0,1,.36-1.16h0a1.33,1.33,0,0,0,.14-.18,2,2,0,0,0,.35-1.15,2.09,2.09,0,0,0-2.09-2.09h-5V37.46A1.5,1.5,0,0,1,8.18,36a1.49,1.49,0,0,1,.59.12,3.34,3.34,0,1,0,0-6.19,1.49,1.49,0,0,1-.59.12,1.5,1.5,0,0,1-1.5-1.5V24.64h5a2.08,2.08,0,0,0,1.74-3.23,1.84,1.84,0,0,0-.16-.21,2.09,2.09,0,1,1,3.49,0l-.16.21a2.09,2.09,0,0,0,1.74,3.23h5V28.5a1.5,1.5,0,0,1-1.5,1.5,1.49,1.49,0,0,1-.59-.12,3.34,3.34,0,1,0,0,6.19,1.49,1.49,0,0,1,.59-.12,1.5,1.5,0,0,1,1.5,1.5v3.86h-5a2.08,2.08,0,0,0-1.74,3.23,1.7,1.7,0,0,0,.15.21,2.06,2.06,0,0,1,.35,1.15A2.09,2.09,0,0,1,15,48Z"/><path class="cls-1" d="M33,30a2.09,2.09,0,0,1-2.09-2.09,2.06,2.06,0,0,1,.36-1.16h0a1.33,1.33,0,0,0,.14-.18,2,2,0,0,0,.35-1.15,2.09,2.09,0,0,0-2.09-2.09h-5V19.5a1.5,1.5,0,0,1,1.5-1.5,1.49,1.49,0,0,1,.59.12,3.34,3.34,0,1,0,0-6.19,1.49,1.49,0,0,1-.59.12,1.5,1.5,0,0,1-1.5-1.5V6.68h5a2.08,2.08,0,0,0,1.74-3.23,1.84,1.84,0,0,0-.16-.21,2.09,2.09,0,1,1,3.49,0l-.16.21a2.09,2.09,0,0,0,1.74,3.23h5v3.86a1.5,1.5,0,0,1-1.5,1.5,1.49,1.49,0,0,1-.59-.12,3.34,3.34,0,1,0,0,6.19,1.49,1.49,0,0,1,.59-.12,1.5,1.5,0,0,1,1.5,1.5v3.86h-5a2.08,2.08,0,0,0-1.74,3.23,1.7,1.7,0,0,0,.15.21,2.06,2.06,0,0,1,.35,1.15A2.09,2.09,0,0,1,33,30Z"/><path class="cls-2" d="M48,33a2.09,2.09,0,0,1-3.23,1.75l-.21-.16a2.09,2.09,0,0,0-3.23,1.74v5H37.46a1.5,1.5,0,0,1-1.41-2l0-.08A3.28,3.28,0,0,0,36.32,38a3.34,3.34,0,1,0-6.43,1.25,1.51,1.51,0,0,1-1.38,2.09H24.64v-5a2.08,2.08,0,0,0-3.23-1.74l-.21.15A2.06,2.06,0,0,1,20,35a2.09,2.09,0,1,1,0-4.17,2.06,2.06,0,0,1,1.15.35l.2.15a2,2,0,0,0,1.15.35,2.08,2.08,0,0,0,2.09-2.08v-5H28.5a1.5,1.5,0,0,1,1.38,2.09,3.34,3.34,0,1,0,6.19,0,1.49,1.49,0,0,1-.12-.59,1.5,1.5,0,0,1,1.5-1.5h3.86v5a2.09,2.09,0,0,0,3.23,1.74l.21-.16A2.09,2.09,0,0,1,48,33Z"/><path class="cls-1" d="M67.88,32h0a2.41,2.41,0,0,0,1.39-2.19V18.19A2.41,2.41,0,0,0,67.9,16h5a2.41,2.41,0,0,0-1.35,2.17V29.84A2.41,2.41,0,0,0,72.94,32H67.88Z"/><path class="cls-1" d="M73.75,32l.23-.1a2.13,2.13,0,0,0,1.27-1.8l.83-12A2.13,2.13,0,0,0,74.86,16l-.09,0H78.1l5.44,13.5L88.93,16h3.2l-.07,0a2.13,2.13,0,0,0-1.18,2.05l.82,12a2.13,2.13,0,0,0,1.18,1.77l.25.12H88l.09,0a2.13,2.13,0,0,0,1.22-2.07l-.81-11.8L82.95,32h0a1.07,1.07,0,0,1-1-.66L76.55,18.07l-.83,11.86A2.13,2.13,0,0,0,76.95,32h-3.2Z"/><path class="cls-1" d="M94.34,32l9-15.56H98.67a4.84,4.84,0,0,0-4.15,2.35h0V16H105.8l-9,15.56h5A4.84,4.84,0,0,0,106,29.22h0V32Z"/><path class="cls-1" d="M107,32l.87-.39a1.68,1.68,0,0,0,.86-.89l5.84-14.08a1.07,1.07,0,0,1,1-.66h0l5.87,14.75a1.68,1.68,0,0,0,.84.89l.8.38h-5.24a1.68,1.68,0,0,0,.86-2.13l-1.25-3.18h-6.57l-1.24,3a1.68,1.68,0,0,0,1,2.22l.24.08ZM111,26.22h6.18l-3-7.71Z"/><path class="cls-1" d="M131,18a7.11,7.11,0,0,1,5.44-2.2,7.64,7.64,0,0,1,3.78.86,1.69,1.69,0,0,0,1.7-.06h0V20h-.16a4.11,4.11,0,0,0-2.2-3,6.29,6.29,0,0,0-2.72-.64c-3.46,0-5.41,2.7-5.41,7.67a9.5,9.5,0,0,0,1.39,5.49,4.6,4.6,0,0,0,4,2,5,5,0,0,0,3.22-1v-4a2.36,2.36,0,0,0-1.39-2.15h5.06a2.36,2.36,0,0,0-1.35,2.13v4.71l-.28.3h0a2.63,2.63,0,0,0-2.13,0,8.28,8.28,0,0,1-3.43.68A7.26,7.26,0,0,1,131,30a8.39,8.39,0,0,1-2-6A8.46,8.46,0,0,1,131,18Z"/><path class="cls-1" d="M144.57,32l.14-.07a2.22,2.22,0,0,0,1.27-2V18.06A2.22,2.22,0,0,0,144.57,16h6.52A6.11,6.11,0,0,1,155,17.16a3.82,3.82,0,0,1,1.48,3.18c0,2.27-1.5,3.82-3.94,4.17a3.36,3.36,0,0,1,1.5,1.65l2.52,4.63a2.22,2.22,0,0,0,1,.94l.61.29h-3.37l-3.33-6.22a2.22,2.22,0,0,0-2-1.17h-1.19v5.32a2.22,2.22,0,0,0,1.27,2l.14.07Zm3.76-7.85h2.48c2,0,3.28-1.4,3.28-3.85s-1.28-3.87-3.28-3.87h-2.48Z"/><path class="cls-1" d="M160.34,18.07a7.42,7.42,0,0,1,10.59,0A8.39,8.39,0,0,1,173,24a8.41,8.41,0,0,1-2,6,7.48,7.48,0,0,1-10.59,0,8.5,8.5,0,0,1-2-6A8.52,8.52,0,0,1,160.34,18.07Zm5.31,13.73c3,0,4.85-2.84,4.85-7.78s-1.89-7.83-4.85-7.83-4.87,2.86-4.87,7.83S162.66,31.81,165.64,31.81Z"/><path class="cls-1" d="M174.41,16h5.18l-.06,0a2.36,2.36,0,0,0-1.36,2.14v7.91c0,3.27,1.76,5.2,4.52,5.2a4.28,4.28,0,0,0,3.35-1.4,5.36,5.36,0,0,0,1.3-3.8V18.15A2.36,2.36,0,0,0,185.93,16h3.26a2.36,2.36,0,0,0-1.41,2.16v7.91a5.92,5.92,0,0,1-1.65,4.46,6.54,6.54,0,0,1-8.66,0,6,6,0,0,1-1.65-4.44V18.15A2.36,2.36,0,0,0,174.46,16Z"/><path class="cls-1" d="M190,32l.14-.07a2.22,2.22,0,0,0,1.27-2V18.06A2.22,2.22,0,0,0,190,16h6.13a6.68,6.68,0,0,1,4.22,1.24A4.05,4.05,0,0,1,202,20.57a4.05,4.05,0,0,1-1.61,3.34,6.68,6.68,0,0,1-4.22,1.24h-1.76l-.28-.3v-.16h1.76c2.28,0,3.72-1.49,3.72-4.12s-1.44-4.12-3.72-4.12H193.8V29.71a2.22,2.22,0,0,0,1.57,2.12l.6.18Z"/></g></g></svg>